<?xml version="1.0" encoding="UTF-8" standalone="no"?>
<!DOCTYPE svg PUBLIC "-//W3C//DTD SVG 1.1//EN"
 "http://www.w3.org/Graphics/SVG/1.1/DTD/svg11.dtd">
<!-- Generated by graphviz version 8.0.5 (20230430.1635)
 -->
<!-- Title: clattice Pages: 1 -->
<svg width="418pt" height="585pt"
 viewBox="0.00 0.00 417.75 585.00" xmlns="http://www.w3.org/2000/svg" xmlns:xlink="http://www.w3.org/1999/xlink">
<g id="graph0" class="graph" transform="scale(1 1) rotate(0) translate(4 581)">
<title>clattice</title>
<polygon fill="white" stroke="none" points="-4,4 -4,-581 413.75,-581 413.75,4 -4,4"/>
<!-- c0 -->
<g id="node1" class="node">
<title>c0</title>
<polygon fill="lightblue" stroke="none" points="234.87,-22.5 234.87,-127.5 290.37,-127.5 290.37,-22.5 234.87,-22.5"/>
<polygon fill="none" stroke="black" points="234.87,-22.5 234.87,-127.5 290.37,-127.5 290.37,-22.5 234.87,-22.5"/>
<text text-anchor="start" x="237.87" y="-111.2" font-family="Times,serif" font-size="14.00">Ostrich</text>
<text text-anchor="start" x="237.87" y="-94.7" font-family="Times,serif" font-size="14.00"> Sparrow</text>
<text text-anchor="start" x="237.87" y="-78.2" font-family="Times,serif" font-size="14.00"> Eagle</text>
<text text-anchor="start" x="237.87" y="-61.7" font-family="Times,serif" font-size="14.00"> Lion</text>
<text text-anchor="start" x="237.87" y="-45.2" font-family="Times,serif" font-size="14.00"> Bonobo</text>
<text text-anchor="start" x="237.87" y="-28.7" font-family="Times,serif" font-size="14.00"> Human</text>
<polygon fill="white" stroke="none" points="234.87,0 234.87,-22.5 290.37,-22.5 290.37,0 234.87,0"/>
<polygon fill="none" stroke="black" points="234.87,0 234.87,-22.5 290.37,-22.5 290.37,0 234.87,0"/>
<text text-anchor="start" x="237.87" y="-6.2" font-family="Times,serif" font-size="14.00"> &#160;&#160;&#160;&#160;</text>
</g>
<!-- c1 -->
<g id="node2" class="node">
<title>c1</title>
<polygon fill="lightblue" stroke="none" points="235.62,-280.25 235.62,-319.25 289.62,-319.25 289.62,-280.25 235.62,-280.25"/>
<polygon fill="none" stroke="black" points="235.62,-280.25 235.62,-319.25 289.62,-319.25 289.62,-280.25 235.62,-280.25"/>
<text text-anchor="start" x="238.62" y="-302.95" font-family="Times,serif" font-size="14.00"> Eagle</text>
<text text-anchor="start" x="238.62" y="-286.45" font-family="Times,serif" font-size="14.00"> Lion</text>
<polygon fill="pink" stroke="none" points="235.62,-257.75 235.62,-280.25 289.62,-280.25 289.62,-257.75 235.62,-257.75"/>
<polygon fill="none" stroke="black" points="235.62,-257.75 235.62,-280.25 289.62,-280.25 289.62,-257.75 235.62,-257.75"/>
<text text-anchor="start" x="238.62" y="-263.95" font-family="Times,serif" font-size="14.00">preying*</text>
</g>
<!-- c1&#45;&#45;c0 -->
<g id="edge1" class="edge">
<title>c1&#45;&#45;c0</title>
<path fill="none" stroke="#999999" d="M262.62,-258.19C262.62,-224.76 262.62,-170.03 262.62,-127.13"/>
</g>
<!-- c2 -->
<g id="node3" class="node">
<title>c2</title>
<polygon fill="lightblue" stroke="none" points="108.62,-172 108.62,-227.5 174.62,-227.5 174.62,-172 108.62,-172"/>
<polygon fill="none" stroke="black" points="108.62,-172 108.62,-227.5 174.62,-227.5 174.62,-172 108.62,-172"/>
<text text-anchor="start" x="111.62" y="-211.2" font-family="Times,serif" font-size="14.00"> Lion</text>
<text text-anchor="start" x="111.62" y="-194.7" font-family="Times,serif" font-size="14.00"> Bonobo</text>
<text text-anchor="start" x="111.62" y="-178.2" font-family="Times,serif" font-size="14.00"> Human</text>
<polygon fill="pink" stroke="none" points="108.62,-149.5 108.62,-172 174.62,-172 174.62,-149.5 108.62,-149.5"/>
<polygon fill="none" stroke="black" points="108.62,-149.5 108.62,-172 174.62,-172 174.62,-149.5 108.62,-149.5"/>
<text text-anchor="start" x="111.62" y="-155.7" font-family="Times,serif" font-size="14.00">mammal *</text>
</g>
<!-- c2&#45;&#45;c0 -->
<g id="edge2" class="edge">
<title>c2&#45;&#45;c0</title>
<path fill="none" stroke="#999999" d="M174.36,-154.74C193.4,-135.11 217.12,-110.66 235.17,-92.05"/>
</g>
<!-- c3 -->
<g id="node4" class="node">
<title>c3</title>
<polygon fill="lightblue" stroke="none" points="120,-396.75 120,-419.25 179.25,-419.25 179.25,-396.75 120,-396.75"/>
<polygon fill="none" stroke="black" points="120,-396.75 120,-419.25 179.25,-419.25 179.25,-396.75 120,-396.75"/>
<text text-anchor="start" x="123" y="-402.95" font-family="Times,serif" font-size="14.00"> Lion*</text>
<polygon fill="pink" stroke="none" points="120,-357.75 120,-396.75 179.25,-396.75 179.25,-357.75 120,-357.75"/>
<polygon fill="none" stroke="black" points="120,-357.75 120,-396.75 179.25,-396.75 179.25,-357.75 120,-357.75"/>
<text text-anchor="start" x="123" y="-380.45" font-family="Times,serif" font-size="14.00">mammal </text>
<text text-anchor="start" x="123" y="-363.95" font-family="Times,serif" font-size="14.00">preying</text>
</g>
<!-- c3&#45;&#45;c1 -->
<g id="edge3" class="edge">
<title>c3&#45;&#45;c1</title>
<path fill="none" stroke="#999999" d="M179.01,-362.49C196.54,-346.98 218.63,-327.43 235.7,-312.33"/>
</g>
<!-- c3&#45;&#45;c2 -->
<g id="edge4" class="edge">
<title>c3&#45;&#45;c2</title>
<path fill="none" stroke="#999999" d="M148.41,-358.12C147.01,-323.16 144.71,-265.64 143.18,-227.42"/>
</g>
<!-- c4 -->
<g id="node5" class="node">
<title>c4</title>
<polygon fill="lightblue" stroke="none" points="0,-288.5 0,-327.5 59.25,-327.5 59.25,-288.5 0,-288.5"/>
<polygon fill="none" stroke="black" points="0,-288.5 0,-327.5 59.25,-327.5 59.25,-288.5 0,-288.5"/>
<text text-anchor="start" x="3" y="-311.2" font-family="Times,serif" font-size="14.00"> Bonobo*</text>
<text text-anchor="start" x="3" y="-294.7" font-family="Times,serif" font-size="14.00"> Human</text>
<polygon fill="pink" stroke="none" points="0,-249.5 0,-288.5 59.25,-288.5 59.25,-249.5 0,-249.5"/>
<polygon fill="none" stroke="black" points="0,-249.5 0,-288.5 59.25,-288.5 59.25,-249.5 0,-249.5"/>
<text text-anchor="start" x="3" y="-272.2" font-family="Times,serif" font-size="14.00">mammal </text>
<text text-anchor="start" x="3" y="-255.7" font-family="Times,serif" font-size="14.00">ape    *</text>
</g>
<!-- c4&#45;&#45;c2 -->
<g id="edge5" class="edge">
<title>c4&#45;&#45;c2</title>
<path fill="none" stroke="#999999" d="M59.05,-262.23C74.35,-248.57 93.08,-231.84 108.84,-217.77"/>
</g>
<!-- c5 -->
<g id="node6" class="node">
<title>c5</title>
<polygon fill="lightblue" stroke="none" points="3,-405 3,-427.5 62.25,-427.5 62.25,-405 3,-405"/>
<polygon fill="none" stroke="black" points="3,-405 3,-427.5 62.25,-427.5 62.25,-405 3,-405"/>
<text text-anchor="start" x="6" y="-411.2" font-family="Times,serif" font-size="14.00"> Human*</text>
<polygon fill="pink" stroke="none" points="3,-349.5 3,-405 62.25,-405 62.25,-349.5 3,-349.5"/>
<polygon fill="none" stroke="black" points="3,-349.5 3,-405 62.25,-405 62.25,-349.5 3,-349.5"/>
<text text-anchor="start" x="6" y="-388.7" font-family="Times,serif" font-size="14.00">mammal </text>
<text text-anchor="start" x="6" y="-372.2" font-family="Times,serif" font-size="14.00">ape    </text>
<text text-anchor="start" x="6" y="-355.7" font-family="Times,serif" font-size="14.00">talking*</text>
</g>
<!-- c5&#45;&#45;c4 -->
<g id="edge6" class="edge">
<title>c5&#45;&#45;c4</title>
<path fill="none" stroke="#999999" d="M31.46,-349.55C31.24,-342.2 31.01,-334.52 30.79,-327.18"/>
</g>
<!-- c6 -->
<g id="node7" class="node">
<title>c6</title>
<polygon fill="lightblue" stroke="none" points="350.87,-172 350.87,-227.5 406.37,-227.5 406.37,-172 350.87,-172"/>
<polygon fill="none" stroke="black" points="350.87,-172 350.87,-227.5 406.37,-227.5 406.37,-172 350.87,-172"/>
<text text-anchor="start" x="353.87" y="-211.2" font-family="Times,serif" font-size="14.00">Ostrich*</text>
<text text-anchor="start" x="353.87" y="-194.7" font-family="Times,serif" font-size="14.00"> Sparrow</text>
<text text-anchor="start" x="353.87" y="-178.2" font-family="Times,serif" font-size="14.00"> Eagle</text>
<polygon fill="pink" stroke="none" points="350.87,-149.5 350.87,-172 406.37,-172 406.37,-149.5 350.87,-149.5"/>
<polygon fill="none" stroke="black" points="350.87,-149.5 350.87,-172 406.37,-172 406.37,-149.5 350.87,-149.5"/>
<text text-anchor="start" x="353.87" y="-155.7" font-family="Times,serif" font-size="14.00">bird   *</text>
</g>
<!-- c6&#45;&#45;c0 -->
<g id="edge7" class="edge">
<title>c6&#45;&#45;c0</title>
<path fill="none" stroke="#999999" d="M351.13,-158.94C332.77,-139.19 308.71,-113.32 290.32,-93.53"/>
</g>
<!-- c7 -->
<g id="node8" class="node">
<title>c7</title>
<polygon fill="lightblue" stroke="none" points="347.5,-288.5 347.5,-327.5 409.75,-327.5 409.75,-288.5 347.5,-288.5"/>
<polygon fill="none" stroke="black" points="347.5,-288.5 347.5,-327.5 409.75,-327.5 409.75,-288.5 347.5,-288.5"/>
<text text-anchor="start" x="350.5" y="-311.2" font-family="Times,serif" font-size="14.00"> Sparrow*</text>
<text text-anchor="start" x="350.5" y="-294.7" font-family="Times,serif" font-size="14.00"> Eagle</text>
<polygon fill="pink" stroke="none" points="347.5,-249.5 347.5,-288.5 409.75,-288.5 409.75,-249.5 347.5,-249.5"/>
<polygon fill="none" stroke="black" points="347.5,-249.5 347.5,-288.5 409.75,-288.5 409.75,-249.5 347.5,-249.5"/>
<text text-anchor="start" x="350.5" y="-272.2" font-family="Times,serif" font-size="14.00">bird   </text>
<text text-anchor="start" x="350.5" y="-255.7" font-family="Times,serif" font-size="14.00">flying *</text>
</g>
<!-- c7&#45;&#45;c6 -->
<g id="edge8" class="edge">
<title>c7&#45;&#45;c6</title>
<path fill="none" stroke="#999999" d="M378.62,-249.55C378.62,-242.2 378.62,-234.52 378.62,-227.18"/>
</g>
<!-- c8 -->
<g id="node9" class="node">
<title>c8</title>
<polygon fill="lightblue" stroke="none" points="239,-405 239,-427.5 286.25,-427.5 286.25,-405 239,-405"/>
<polygon fill="none" stroke="black" points="239,-405 239,-427.5 286.25,-427.5 286.25,-405 239,-405"/>
<text text-anchor="start" x="242" y="-411.2" font-family="Times,serif" font-size="14.00"> Eagle*</text>
<polygon fill="pink" stroke="none" points="239,-349.5 239,-405 286.25,-405 286.25,-349.5 239,-349.5"/>
<polygon fill="none" stroke="black" points="239,-349.5 239,-405 286.25,-405 286.25,-349.5 239,-349.5"/>
<text text-anchor="start" x="242" y="-388.7" font-family="Times,serif" font-size="14.00">bird   </text>
<text text-anchor="start" x="242" y="-372.2" font-family="Times,serif" font-size="14.00">flying </text>
<text text-anchor="start" x="242" y="-355.7" font-family="Times,serif" font-size="14.00">preying</text>
</g>
<!-- c8&#45;&#45;c1 -->
<g id="edge9" class="edge">
<title>c8&#45;&#45;c1</title>
<path fill="none" stroke="#999999" d="M262.62,-349.55C262.62,-339.46 262.62,-328.74 262.62,-319.14"/>
</g>
<!-- c8&#45;&#45;c7 -->
<g id="edge10" class="edge">
<title>c8&#45;&#45;c7</title>
<path fill="none" stroke="#999999" d="M286.09,-368.26C303.84,-352.97 328.36,-331.83 347.7,-315.16"/>
</g>
<!-- c9 -->
<g id="node10" class="node">
<title>c9</title>
<polygon fill="white" stroke="none" points="120,-554.5 120,-577 179.25,-577 179.25,-554.5 120,-554.5"/>
<polygon fill="none" stroke="black" points="120,-554.5 120,-577 179.25,-577 179.25,-554.5 120,-554.5"/>
<text text-anchor="start" x="123" y="-560.7" font-family="Times,serif" font-size="14.00"> &#160;&#160;&#160;&#160;</text>
<polygon fill="pink" stroke="none" points="120,-449.5 120,-554.5 179.25,-554.5 179.25,-449.5 120,-449.5"/>
<polygon fill="none" stroke="black" points="120,-449.5 120,-554.5 179.25,-554.5 179.25,-449.5 120,-449.5"/>
<text text-anchor="start" x="123" y="-538.2" font-family="Times,serif" font-size="14.00">bird   </text>
<text text-anchor="start" x="123" y="-521.7" font-family="Times,serif" font-size="14.00">mammal </text>
<text text-anchor="start" x="123" y="-505.2" font-family="Times,serif" font-size="14.00">ape    </text>
<text text-anchor="start" x="123" y="-488.7" font-family="Times,serif" font-size="14.00">flying </text>
<text text-anchor="start" x="123" y="-472.2" font-family="Times,serif" font-size="14.00">preying</text>
<text text-anchor="start" x="123" y="-455.7" font-family="Times,serif" font-size="14.00">talking</text>
</g>
<!-- c9&#45;&#45;c3 -->
<g id="edge11" class="edge">
<title>c9&#45;&#45;c3</title>
<path fill="none" stroke="#999999" d="M149.62,-449.78C149.62,-439.06 149.62,-428.39 149.62,-419.03"/>
</g>
<!-- c9&#45;&#45;c5 -->
<g id="edge12" class="edge">
<title>c9&#45;&#45;c5</title>
<path fill="none" stroke="#999999" d="M120.1,-481.77C102.36,-462.86 79.87,-438.88 62.14,-419.97"/>
</g>
<!-- c9&#45;&#45;c8 -->
<g id="edge13" class="edge">
<title>c9&#45;&#45;c8</title>
<path fill="none" stroke="#999999" d="M179.01,-480.8C197.72,-460.15 221.61,-433.77 239.06,-414.51"/>
</g>
</g>
</svg>
