<?xml version="1.0" encoding="utf-8"?>
<svg width="720pt" height="656pt" viewBox="0 0 720 656" xmlns="http://www.w3.org/2000/svg">
  <polygon fill="white" stroke="none" points="0 656 0 0 720 0 720 656 0 656" style=""/>
  <g id="node2" class="node" transform="matrix(1, 0, 0, 1, -238.714844, 1325)">
    <title>cl1v</title>
    <polygon fill="white" stroke="none" points="833.5,-1325 750.5,-1325 750.5,-1190 833.5,-1190 833.5,-1325"/>
    <polygon fill="none" stroke="black" points="758.5,-1194 758.5,-1321 770.5,-1321 770.5,-1194 758.5,-1194"/>
    <text text-anchor="start" x="761.12" y="-1252.45" font-family="Times,serif" font-size="14.00" style="white-space: pre;">1</text>
    <polygon fill="lightblue" stroke="none" points="770.5,-1216 770.5,-1321 825.5,-1321 825.5,-1216 770.5,-1216"/>
    <polygon fill="none" stroke="black" points="770.5,-1216 770.5,-1321 825.5,-1321 825.5,-1216 770.5,-1216"/>
    <text text-anchor="start" x="773.5" y="-1304.7" font-family="Times,serif" font-size="14.00" style="white-space: pre;">Ostrich</text>
    <text text-anchor="start" x="770.5" y="-1288.2" font-family="Times,serif" font-size="14.00" style="white-space: pre; font-size: 14px;"> Sparrow</text>
    <text text-anchor="start" x="770.5" y="-1271.7" font-family="Times,serif" font-size="14.00" style="white-space: pre; font-size: 14px;"> Eagle</text>
    <text text-anchor="start" x="770.5" y="-1255.2" font-family="Times,serif" font-size="14.00" style="white-space: pre; font-size: 14px;"> Lion</text>
    <text text-anchor="start" x="770.5" y="-1238.7" font-family="Times,serif" font-size="14.00" style="white-space: pre; font-size: 14px;"> Bonobo</text>
    <text text-anchor="start" x="770.5" y="-1222.2" font-family="Times,serif" font-size="14.00" style="white-space: pre; font-size: 14px;"> Human</text>
    <polygon fill="white" stroke="none" points="770.5,-1194 770.5,-1216 825.5,-1216 825.5,-1194 770.5,-1194"/>
    <polygon fill="none" stroke="black" points="770.5,-1194 770.5,-1216 825.5,-1216 825.5,-1194 770.5,-1194"/>
    <text text-anchor="start" x="773.5" y="-1199.7" font-family="Times,serif" font-size="14.00" style="white-space: pre;">     </text>
  </g>
  <g id="node4" class="node" transform="matrix(1, 0, 0, 1, -238.714844, 1325)">
    <title>cl2v</title>
    <polygon fill="white" stroke="none" points="833,-1145 751,-1145 751,-1076 833,-1076 833,-1145"/>
    <polygon fill="none" stroke="black" points="759,-1080 759,-1141 771,-1141 771,-1080 759,-1080"/>
    <text text-anchor="start" x="761.62" y="-1105.45" font-family="Times,serif" font-size="14.00" style="white-space: pre;">2</text>
    <polygon fill="lightblue" stroke="none" points="771,-1102 771,-1141 825,-1141 825,-1102 771,-1102"/>
    <polygon fill="none" stroke="black" points="771,-1102 771,-1141 825,-1141 825,-1102 771,-1102"/>
    <text text-anchor="start" x="772" y="-1124.7" font-family="Times,serif" font-size="14.00" style="white-space: pre; font-size: 14px;"> Eagle</text>
    <text text-anchor="start" x="772" y="-1108.2" font-family="Times,serif" font-size="14.00" style="white-space: pre; font-size: 14px;"> Lion</text>
    <polygon fill="pink" stroke="none" points="771,-1080 771,-1102 825,-1102 825,-1080 771,-1080"/>
    <polygon fill="none" stroke="black" points="771,-1080 771,-1102 825,-1102 825,-1080 771,-1080"/>
    <text text-anchor="start" x="774" y="-1085.7" font-family="Times,serif" font-size="14.00" style="white-space: pre;">preying*</text>
  </g>
  <polygon fill="white" stroke="none" points="606.285 294 512.285 294 512.285 379 606.285 379 606.285 294"/>
  <polygon fill="none" stroke="black" points="520.285 375 520.285 298 532.285 298 532.285 375 520.285 375"/>
  <text text-anchor="start" x="522.905" y="341.55" font-family="Times,serif" font-size="14.00" style="white-space: pre; font-size: 14px;">3</text>
  <polygon fill="lightblue" stroke="none" points="532.285 353 532.285 298 598.285 298 598.285 353 532.285 353"/>
  <polygon fill="none" stroke="black" points="532.285 353 532.285 298 598.285 298 598.285 353 532.285 353"/>
  <text text-anchor="start" x="533.285" y="314.3" font-family="Times,serif" font-size="14.00" style="white-space: pre; font-size: 14px;"> Lion</text>
  <text text-anchor="start" x="533.285" y="330.8" font-family="Times,serif" font-size="14.00" style="white-space: pre; font-size: 14px;"> Bonobo</text>
  <text text-anchor="start" x="533.285" y="347.3" font-family="Times,serif" font-size="14.00" style="white-space: pre; font-size: 14px;"> Human</text>
  <polygon fill="pink" stroke="none" points="532.285 375 532.285 353 598.285 353 598.285 375 532.285 375"/>
  <polygon fill="none" stroke="black" points="532.285 375 532.285 353 598.285 353 598.285 375 532.285 375"/>
  <text text-anchor="start" x="535.285" y="369.3" font-family="Times,serif" font-size="14.00" style="white-space: pre; font-size: 14px;">mammal *</text>
  <g id="node8" class="node" transform="matrix(1, 0, 0, 1, -238.714844, 1325)">
    <title>cl4v</title>
    <polygon fill="white" stroke="none" points="837.5,-901 750.5,-901 750.5,-832 837.5,-832 837.5,-901"/>
    <polygon fill="none" stroke="black" points="758.5,-836 758.5,-897 770.5,-897 770.5,-836 758.5,-836"/>
    <text text-anchor="start" x="761.12" y="-861.45" font-family="Times,serif" font-size="14.00" style="white-space: pre;">4</text>
    <polygon fill="lightblue" stroke="none" points="770.5,-875 770.5,-897 829.5,-897 829.5,-875 770.5,-875"/>
    <polygon fill="none" stroke="black" points="770.5,-875 770.5,-897 829.5,-897 829.5,-875 770.5,-875"/>
    <text text-anchor="start" x="771.5" y="-880.7" font-family="Times,serif" font-size="14.00" style="white-space: pre; font-size: 14px;"> Lion*</text>
    <polygon fill="pink" stroke="none" points="770.5,-836 770.5,-875 829.5,-875 829.5,-836 770.5,-836"/>
    <polygon fill="none" stroke="black" points="770.5,-836 770.5,-875 829.5,-875 829.5,-836 770.5,-836"/>
    <text text-anchor="start" x="773.5" y="-858.7" font-family="Times,serif" font-size="14.00" style="white-space: pre;">mammal </text>
    <text text-anchor="start" x="773.5" y="-842.2" font-family="Times,serif" font-size="14.00" style="white-space: pre;">preying</text>
  </g>
  <g id="node10" class="node" transform="matrix(1, 0, 0, 1, -238.714844, 1325)">
    <title>cl5v</title>
    <polygon fill="white" stroke="none" points="837.5,-787 750.5,-787 750.5,-701 837.5,-701 837.5,-787"/>
    <polygon fill="none" stroke="black" points="758.5,-705 758.5,-783 770.5,-783 770.5,-705 758.5,-705"/>
    <text text-anchor="start" x="761.12" y="-738.95" font-family="Times,serif" font-size="14.00" style="white-space: pre;">5</text>
    <polygon fill="lightblue" stroke="none" points="770.5,-744 770.5,-783 829.5,-783 829.5,-744 770.5,-744"/>
    <polygon fill="none" stroke="black" points="770.5,-744 770.5,-783 829.5,-783 829.5,-744 770.5,-744"/>
    <text text-anchor="start" x="771.5" y="-766.7" font-family="Times,serif" font-size="14.00" style="white-space: pre; font-size: 14px;"> Bonobo*</text>
    <text text-anchor="start" x="771.5" y="-750.2" font-family="Times,serif" font-size="14.00" style="white-space: pre; font-size: 14px;"> Human</text>
    <polygon fill="pink" stroke="none" points="770.5,-705 770.5,-744 829.5,-744 829.5,-705 770.5,-705"/>
    <polygon fill="none" stroke="black" points="770.5,-705 770.5,-744 829.5,-744 829.5,-705 770.5,-705"/>
    <text text-anchor="start" x="773.5" y="-727.7" font-family="Times,serif" font-size="14.00" style="white-space: pre;">mammal </text>
    <text text-anchor="start" x="773.5" y="-711.2" font-family="Times,serif" font-size="14.00" style="white-space: pre;">ape    *</text>
  </g>
  <g id="node12" class="node" transform="matrix(1, 0, 0, 1, -125.441696, 656)">
    <title>cl6v</title>
    <polygon fill="white" stroke="none" points="837.5,-656 750.5,-656 750.5,-571 837.5,-571 837.5,-656"/>
    <polygon fill="none" stroke="black" points="758.5,-575 758.5,-652 770.5,-652 770.5,-575 758.5,-575"/>
    <text text-anchor="start" x="761.12" y="-608.45" font-family="Times,serif" font-size="14.00" style="white-space: pre;">6</text>
    <polygon fill="lightblue" stroke="none" points="770.5,-630 770.5,-652 829.5,-652 829.5,-630 770.5,-630"/>
    <polygon fill="none" stroke="black" points="770.5,-630 770.5,-652 829.5,-652 829.5,-630 770.5,-630"/>
    <text text-anchor="start" x="769.5" y="-635.7" font-family="Times,serif" font-size="14.00" style="white-space: pre; font-size: 14px;"> Human*</text>
    <polygon fill="pink" stroke="none" points="770.5,-575 770.5,-630 829.5,-630 829.5,-575 770.5,-575"/>
    <polygon fill="none" stroke="black" points="770.5,-575 770.5,-630 829.5,-630 829.5,-575 770.5,-575"/>
    <text text-anchor="start" x="773.5" y="-613.7" font-family="Times,serif" font-size="14.00" style="white-space: pre;">mammal </text>
    <text text-anchor="start" x="773.5" y="-597.2" font-family="Times,serif" font-size="14.00" style="white-space: pre;">ape    </text>
    <text text-anchor="start" x="773.5" y="-580.7" font-family="Times,serif" font-size="14.00" style="white-space: pre;">talking*</text>
  </g>
  <g id="node14" class="node" transform="matrix(1, 0, 0, 1, -125.441696, 656)">
    <title>cl7v</title>
    <polygon fill="white" stroke="none" points="833.5,-526 750.5,-526 750.5,-441 833.5,-441 833.5,-526"/>
    <polygon fill="none" stroke="black" points="758.5,-445 758.5,-522 770.5,-522 770.5,-445 758.5,-445"/>
    <text text-anchor="start" x="761.12" y="-478.45" font-family="Times,serif" font-size="14.00" style="white-space: pre;">7</text>
    <polygon fill="lightblue" stroke="none" points="770.5,-467 770.5,-522 825.5,-522 825.5,-467 770.5,-467"/>
    <polygon fill="none" stroke="black" points="770.5,-467 770.5,-522 825.5,-522 825.5,-467 770.5,-467"/>
    <text text-anchor="start" x="773.5" y="-505.7" font-family="Times,serif" font-size="14.00" style="white-space: pre;">Ostrich*</text>
    <text text-anchor="start" x="770.5" y="-489.2" font-family="Times,serif" font-size="14.00" style="white-space: pre; font-size: 14px;"> Sparrow</text>
    <text text-anchor="start" x="770.5" y="-472.7" font-family="Times,serif" font-size="14.00" style="white-space: pre; font-size: 14px;"> Eagle</text>
    <polygon fill="pink" stroke="none" points="770.5,-445 770.5,-467 825.5,-467 825.5,-445 770.5,-445"/>
    <polygon fill="none" stroke="black" points="770.5,-445 770.5,-467 825.5,-467 825.5,-445 770.5,-445"/>
    <text text-anchor="start" x="773.5" y="-450.7" font-family="Times,serif" font-size="14.00" style="white-space: pre;">bird   *</text>
  </g>
  <polygon fill="white" stroke="none" points="715.558 260 625.558 260 625.558 346 715.558 346 715.558 260"/>
  <polygon fill="none" stroke="black" points="633.558 342 633.558 264 645.558 264 645.558 342 633.558 342"/>
  <text text-anchor="start" x="636.178" y="308.05" font-family="Times,serif" font-size="14.00" style="white-space: pre; font-size: 14px;">8</text>
  <polygon fill="lightblue" stroke="none" points="645.558 303 645.558 264 707.558 264 707.558 303 645.558 303"/>
  <polygon fill="none" stroke="black" points="645.558 303 645.558 264 707.558 264 707.558 303 645.558 303"/>
  <text text-anchor="start" x="644.558" y="280.3" font-family="Times,serif" font-size="14.00" style="white-space: pre; font-size: 14px;"> Sparrow*</text>
  <text text-anchor="start" x="644.558" y="296.8" font-family="Times,serif" font-size="14.00" style="white-space: pre; font-size: 14px;"> Eagle</text>
  <polygon fill="pink" stroke="none" points="645.558 342 645.558 303 707.558 303 707.558 342 645.558 342"/>
  <polygon fill="none" stroke="black" points="645.558 342 645.558 303 707.558 303 707.558 342 645.558 342"/>
  <text text-anchor="start" x="648.558" y="319.3" font-family="Times,serif" font-size="14.00" style="white-space: pre; font-size: 14px;">bird   </text>
  <text text-anchor="start" x="648.558" y="335.8" font-family="Times,serif" font-size="14.00" style="white-space: pre; font-size: 14px;">flying *</text>
  <g id="node18" class="node" transform="matrix(1, 0, 0, 1, -125.441696, 656)">
    <title>cl9v</title>
    <polygon fill="white" stroke="none" points="825.5,-265 750.5,-265 750.5,-180 825.5,-180 825.5,-265"/>
    <polygon fill="none" stroke="black" points="758.5,-184 758.5,-261 770.5,-261 770.5,-184 758.5,-184"/>
    <text text-anchor="start" x="761.12" y="-217.45" font-family="Times,serif" font-size="14.00" style="white-space: pre;">9</text>
    <polygon fill="lightblue" stroke="none" points="770.5,-239 770.5,-261 817.5,-261 817.5,-239 770.5,-239"/>
    <polygon fill="none" stroke="black" points="770.5,-239 770.5,-261 817.5,-261 817.5,-239 770.5,-239"/>
    <text text-anchor="start" x="769.5" y="-244.7" font-family="Times,serif" font-size="14.00" style="white-space: pre; font-size: 14px;"> Eagle*</text>
    <polygon fill="pink" stroke="none" points="770.5,-184 770.5,-239 817.5,-239 817.5,-184 770.5,-184"/>
    <polygon fill="none" stroke="black" points="770.5,-184 770.5,-239 817.5,-239 817.5,-184 770.5,-184"/>
    <text text-anchor="start" x="773.5" y="-222.7" font-family="Times,serif" font-size="14.00" style="white-space: pre;">bird   </text>
    <text text-anchor="start" x="773.5" y="-206.2" font-family="Times,serif" font-size="14.00" style="white-space: pre;">flying </text>
    <text text-anchor="start" x="773.5" y="-189.7" font-family="Times,serif" font-size="14.00" style="white-space: pre;">preying</text>
  </g>
  <g id="node20" class="node" transform="matrix(1, 0, 0, 1, -125.441696, 656)">
    <title>cl10v</title>
    <polygon fill="white" stroke="none" points="845,-135 751,-135 751,0 845,0 845,-135"/>
    <polygon fill="none" stroke="black" points="759,-4 759,-131 778,-131 778,-4 759,-4"/>
    <text text-anchor="start" x="761.75" y="-62.45" font-family="Times,serif" font-size="14.00" style="white-space: pre;">10</text>
    <polygon fill="white" stroke="none" points="778,-109 778,-131 837,-131 837,-109 778,-109"/>
    <polygon fill="none" stroke="black" points="778,-109 778,-131 837,-131 837,-109 778,-109"/>
    <text text-anchor="start" x="781" y="-114.7" font-family="Times,serif" font-size="14.00" style="white-space: pre;">     </text>
    <polygon fill="pink" stroke="none" points="778,-4 778,-109 837,-109 837,-4 778,-4"/>
    <polygon fill="none" stroke="black" points="778,-4 778,-109 837,-109 837,-4 778,-4"/>
    <text text-anchor="start" x="781" y="-92.7" font-family="Times,serif" font-size="14.00" style="white-space: pre;">bird   </text>
    <text text-anchor="start" x="781" y="-76.2" font-family="Times,serif" font-size="14.00" style="white-space: pre;">mammal </text>
    <text text-anchor="start" x="781" y="-59.7" font-family="Times,serif" font-size="14.00" style="white-space: pre;">ape    </text>
    <text text-anchor="start" x="781" y="-43.2" font-family="Times,serif" font-size="14.00" style="white-space: pre;">flying </text>
    <text text-anchor="start" x="781" y="-26.7" font-family="Times,serif" font-size="14.00" style="white-space: pre;">preying</text>
    <text text-anchor="start" x="781" y="-10.2" font-family="Times,serif" font-size="14.00" style="white-space: pre;">talking</text>
  </g>
  <g id="node21" class="node" transform="matrix(1, 0, 0, 1, 4, 1329)">
    <title>c0</title>
    <ellipse fill="lightgrey" stroke="black" cx="269" cy="-744" rx="18" ry="18"/>
    <text text-anchor="middle" x="269" y="-738.95" font-family="Times,serif" font-size="14.00" style="white-space: pre;">1</text>
  </g>
  <g id="node22" class="node" transform="matrix(1, 0, 0, 1, 4, 1329)">
    <title>c1</title>
    <ellipse fill="lightgrey" stroke="black" cx="269" cy="-988.5" rx="18" ry="18"/>
    <text text-anchor="middle" x="269" y="-983.45" font-family="Times,serif" font-size="14.00" style="white-space: pre;">2</text>
  </g>
  <g id="edge20" class="edge" transform="matrix(1, 0, 0, 1, 4, 1329)">
    <title>c1--c0</title>
    <path fill="none" stroke="#999999" d="M269,-970.12C269,-924.7 269,-807.55 269,-762.26"/>
  </g>
  <g id="node23" class="node" transform="matrix(1, 0, 0, 1, 4, 1329)">
    <title>c2</title>
    <ellipse fill="lightgrey" stroke="black" cx="136" cy="-866.5" rx="18" ry="18"/>
    <text text-anchor="middle" x="136" y="-861.45" font-family="Times,serif" font-size="14.00" style="white-space: pre;">3</text>
  </g>
  <g id="edge21" class="edge" transform="matrix(1, 0, 0, 1, 4, 1329)">
    <title>c2--c0</title>
    <path fill="none" stroke="#999999" d="M149.24,-854.31C174.6,-830.95 229.79,-780.11 255.42,-756.51"/>
  </g>
  <g id="node24" class="node" transform="matrix(1, 0, 0, 1, 4, 1329)">
    <title>c3</title>
    <ellipse fill="lightgrey" stroke="black" cx="239" cy="-1110.5" rx="18" ry="18"/>
    <text text-anchor="middle" x="239" y="-1105.45" font-family="Times,serif" font-size="14.00" style="white-space: pre;">4</text>
  </g>
  <g id="edge22" class="edge" transform="matrix(1, 0, 0, 1, 4, 1329)">
    <title>c3--c1</title>
    <path fill="none" stroke="#999999" d="M243.36,-1092.76C249.05,-1069.63 258.94,-1029.4 264.63,-1006.26"/>
  </g>
  <g id="edge23" class="edge" transform="matrix(1, 0, 0, 1, 4, 1329)">
    <title>c3--c2</title>
    <path fill="none" stroke="#999999" d="M231.92,-1093.73C213.1,-1049.15 162,-928.1 143.13,-883.39"/>
  </g>
  <g id="node25" class="node" transform="matrix(1, 0, 0, 1, 4, 1329)">
    <title>c4</title>
    <ellipse fill="lightgrey" stroke="black" cx="18" cy="-988.5" rx="18" ry="18"/>
    <text text-anchor="middle" x="18" y="-983.45" font-family="Times,serif" font-size="14.00" style="white-space: pre;">5</text>
  </g>
  <g id="edge24" class="edge" transform="matrix(1, 0, 0, 1, 4, 1329)">
    <title>c4--c2</title>
    <path fill="none" stroke="#999999" d="M30.63,-975.44C53.34,-951.96 100.82,-902.88 123.46,-879.46"/>
  </g>
  <g id="node26" class="node" transform="matrix(1, 0, 0, 1, 4, 1329)">
    <title>c5</title>
    <ellipse fill="lightgrey" stroke="black" cx="33" cy="-1110.5" rx="18" ry="18"/>
    <text text-anchor="middle" x="33" y="-1105.45" font-family="Times,serif" font-size="14.00" style="white-space: pre;">6</text>
  </g>
  <g id="edge25" class="edge" transform="matrix(1, 0, 0, 1, 4, 1329)">
    <title>c5--c4</title>
    <path fill="none" stroke="#999999" d="M30.75,-1092.24C27.91,-1069.1 23.04,-1029.49 20.21,-1006.49"/>
  </g>
  <g id="node27" class="node" transform="matrix(1, 0, 0, 1, 4, 1329)">
    <title>c6</title>
    <ellipse fill="lightgrey" stroke="black" cx="395" cy="-866.5" rx="18" ry="18"/>
    <text text-anchor="middle" x="395" y="-861.45" font-family="Times,serif" font-size="14.00" style="white-space: pre;">7</text>
  </g>
  <g id="edge26" class="edge" transform="matrix(1, 0, 0, 1, 4, 1329)">
    <title>c6--c0</title>
    <path fill="none" stroke="#999999" d="M381.99,-853.85C357.85,-830.38 306.36,-780.32 282.13,-756.76"/>
  </g>
  <g id="node28" class="node" transform="matrix(1, 0, 0, 1, 4, 1329)">
    <title>c7</title>
    <ellipse fill="lightgrey" stroke="black" cx="461" cy="-988.5" rx="18" ry="18"/>
    <text text-anchor="middle" x="461" y="-983.45" font-family="Times,serif" font-size="14.00" style="white-space: pre;">8</text>
  </g>
  <g id="edge27" class="edge" transform="matrix(1, 0, 0, 1, 4, 1329)">
    <title>c7--c6</title>
    <path fill="none" stroke="#999999" d="M452.24,-972.3C439.61,-948.97 416.44,-906.14 403.8,-882.77"/>
  </g>
  <g id="node29" class="node" transform="matrix(1, 0, 0, 1, 4, 1329)">
    <title>c8</title>
    <ellipse fill="lightgrey" stroke="black" cx="372" cy="-1110.5" rx="18" ry="18"/>
    <text text-anchor="middle" x="372" y="-1105.45" font-family="Times,serif" font-size="14.00" style="white-space: pre;">9</text>
  </g>
  <g id="edge28" class="edge" transform="matrix(1, 0, 0, 1, 4, 1329)">
    <title>c8--c1</title>
    <path fill="none" stroke="#999999" d="M360.18,-1096.51C340.32,-1072.97 300.45,-1025.76 280.68,-1002.33"/>
  </g>
  <g id="edge29" class="edge" transform="matrix(1, 0, 0, 1, 4, 1329)">
    <title>c8--c7</title>
    <path fill="none" stroke="#999999" d="M382.56,-1096.03C399.6,-1072.67 432.97,-1026.92 450.18,-1003.34"/>
  </g>
  <g id="node30" class="node" transform="matrix(1, 0, 0, 1, 4, 1329)">
    <title>c9</title>
    <ellipse fill="lightgrey" stroke="black" cx="239" cy="-1257.5" rx="20.13" ry="20.13"/>
    <text text-anchor="middle" x="239" y="-1252.45" font-family="Times,serif" font-size="14.00" style="white-space: pre;">10</text>
  </g>
  <g id="edge30" class="edge" transform="matrix(1, 0, 0, 1, 4, 1329)">
    <title>c9--c3</title>
    <path fill="none" stroke="#999999" d="M239,-1237.06C239,-1208.34 239,-1156.49 239,-1128.91"/>
  </g>
  <g id="edge31" class="edge" transform="matrix(1, 0, 0, 1, 4, 1329)">
    <title>c9--c5</title>
    <path fill="none" stroke="#999999" d="M222.49,-1245.72C183.35,-1217.79 85.38,-1147.88 47.9,-1121.14"/>
  </g>
  <g id="edge32" class="edge" transform="matrix(1, 0, 0, 1, 4, 1329)">
    <title>c9--c8</title>
    <path fill="none" stroke="#999999" d="M252.73,-1242.32C278.75,-1213.57 334.84,-1151.57 359.7,-1124.09"/>
  </g>
</svg>