<?xml version="1.0" encoding="UTF-8" standalone="no"?>
<!DOCTYPE svg PUBLIC "-//W3C//DTD SVG 1.1//EN"
 "http://www.w3.org/Graphics/SVG/1.1/DTD/svg11.dtd">
<!-- Generated by graphviz version 8.0.5 (20230430.1635)
 -->
<!-- Title: clattice Pages: 1 -->
<svg width="305pt" height="321pt"
 viewBox="0.00 0.00 305.38 321.00" xmlns="http://www.w3.org/2000/svg" xmlns:xlink="http://www.w3.org/1999/xlink">
<g id="graph0" class="graph" transform="scale(1 1) rotate(0) translate(4 317)">
<title>clattice</title>
<polygon fill="white" stroke="none" points="-4,4 -4,-317 301.38,-317 301.38,4 -4,4"/>
<!-- c0 -->
<g id="node1" class="node">
<title>c0</title>
<polygon fill="white" stroke="none" points="170.25,-22.5 170.25,-45 195,-45 195,-22.5 170.25,-22.5"/>
<polygon fill="none" stroke="black" points="170.25,-22.5 170.25,-45 195,-45 195,-22.5 170.25,-22.5"/>
<text text-anchor="start" x="173.25" y="-28.7" font-family="Times,serif" font-size="14.00"> &#160;&#160;&#160;&#160;</text>
<polygon fill="white" stroke="none" points="170.25,0 170.25,-22.5 195,-22.5 195,0 170.25,0"/>
<polygon fill="none" stroke="black" points="170.25,0 170.25,-22.5 195,-22.5 195,0 170.25,0"/>
<text text-anchor="start" x="173.25" y="-6.2" font-family="Times,serif" font-size="14.00"> &#160;&#160;&#160;&#160;</text>
</g>
<!-- c1 -->
<g id="node2" class="node">
<title>c1</title>
<polygon fill="white" stroke="none" points="157.25,-156.5 157.25,-179 206,-179 206,-156.5 157.25,-156.5"/>
<polygon fill="none" stroke="black" points="157.25,-156.5 157.25,-179 206,-179 206,-156.5 157.25,-156.5"/>
<text text-anchor="start" x="160.25" y="-162.7" font-family="Times,serif" font-size="14.00"> &#160;&#160;&#160;&#160;</text>
<polygon fill="#ebebeb" stroke="none" points="157.25,-134 157.25,-156.5 206,-156.5 206,-134 157.25,-134"/>
<polygon fill="none" stroke="black" points="157.25,-134 157.25,-156.5 206,-156.5 206,-134 157.25,-134"/>
<text text-anchor="start" x="160.25" y="-140.2" font-family="Times,serif" font-size="14.00">Bonobo</text>
</g>
<!-- c1&#45;&#45;c0 -->
<g id="edge1" class="edge">
<title>c1&#45;&#45;c0</title>
<path fill="none" stroke="#999999" d="M181.79,-134.29C181.97,-109.66 182.28,-69.27 182.46,-44.66"/>
</g>
<!-- c2 -->
<g id="node3" class="node">
<title>c2</title>
<polygon fill="white" stroke="none" points="75.75,-89.5 75.75,-112 127.5,-112 127.5,-89.5 75.75,-89.5"/>
<polygon fill="none" stroke="black" points="75.75,-89.5 75.75,-112 127.5,-112 127.5,-89.5 75.75,-89.5"/>
<text text-anchor="start" x="78.75" y="-95.7" font-family="Times,serif" font-size="14.00"> &#160;&#160;&#160;&#160;</text>
<polygon fill="#ebebeb" stroke="none" points="75.75,-67 75.75,-89.5 127.5,-89.5 127.5,-67 75.75,-67"/>
<polygon fill="none" stroke="black" points="75.75,-67 75.75,-89.5 127.5,-89.5 127.5,-67 75.75,-67"/>
<text text-anchor="start" x="78.75" y="-73.2" font-family="Times,serif" font-size="14.00">Sparrow</text>
</g>
<!-- c2&#45;&#45;c0 -->
<g id="edge2" class="edge">
<title>c2&#45;&#45;c0</title>
<path fill="none" stroke="#999999" d="M127.25,-67.93C141.71,-56.33 159.11,-42.37 170.5,-33.23"/>
</g>
<!-- c3 -->
<g id="node4" class="node">
<title>c3</title>
<polygon fill="#dedede" stroke="none" points="88.5,-223.5 88.5,-246 126.75,-246 126.75,-223.5 88.5,-223.5"/>
<polygon fill="none" stroke="black" points="88.5,-223.5 88.5,-246 126.75,-246 126.75,-223.5 88.5,-223.5"/>
<text text-anchor="start" x="91.5" y="-229.7" font-family="Times,serif" font-size="14.00">flying</text>
<polygon fill="white" stroke="none" points="88.5,-201 88.5,-223.5 126.75,-223.5 126.75,-201 88.5,-201"/>
<polygon fill="none" stroke="black" points="88.5,-201 88.5,-223.5 126.75,-223.5 126.75,-201 88.5,-201"/>
<text text-anchor="start" x="91.5" y="-207.2" font-family="Times,serif" font-size="14.00"> &#160;&#160;&#160;&#160;</text>
</g>
<!-- c3&#45;&#45;c1 -->
<g id="edge3" class="edge">
<title>c3&#45;&#45;c1</title>
<path fill="none" stroke="#999999" d="M126.68,-205.76C136.02,-197.56 147.36,-187.59 157.32,-178.85"/>
</g>
<!-- c3&#45;&#45;c2 -->
<g id="edge4" class="edge">
<title>c3&#45;&#45;c2</title>
<path fill="none" stroke="#999999" d="M106.66,-201.29C105.54,-176.66 103.71,-136.27 102.59,-111.66"/>
</g>
<!-- c4 -->
<g id="node5" class="node">
<title>c4</title>
<polygon fill="#dedede" stroke="none" points="0,-156.5 0,-179 47.25,-179 47.25,-156.5 0,-156.5"/>
<polygon fill="none" stroke="black" points="0,-156.5 0,-179 47.25,-179 47.25,-156.5 0,-156.5"/>
<text text-anchor="start" x="3" y="-162.7" font-family="Times,serif" font-size="14.00">preying</text>
<polygon fill="#ebebeb" stroke="none" points="0,-134 0,-156.5 47.25,-156.5 47.25,-134 0,-134"/>
<polygon fill="none" stroke="black" points="0,-134 0,-156.5 47.25,-156.5 47.25,-134 0,-134"/>
<text text-anchor="start" x="3" y="-140.2" font-family="Times,serif" font-size="14.00">Eagle</text>
</g>
<!-- c4&#45;&#45;c2 -->
<g id="edge5" class="edge">
<title>c4&#45;&#45;c2</title>
<path fill="none" stroke="#999999" d="M47.03,-136C56.18,-128.37 66.71,-119.6 76.06,-111.8"/>
</g>
<!-- c5 -->
<g id="node6" class="node">
<title>c5</title>
<polygon fill="#dedede" stroke="none" points="6.38,-223.5 6.38,-246 52.88,-246 52.88,-223.5 6.38,-223.5"/>
<polygon fill="none" stroke="black" points="6.38,-223.5 6.38,-246 52.88,-246 52.88,-223.5 6.38,-223.5"/>
<text text-anchor="start" x="9.38" y="-229.7" font-family="Times,serif" font-size="14.00">talking</text>
<polygon fill="#ebebeb" stroke="none" points="6.38,-201 6.38,-223.5 52.88,-223.5 52.88,-201 6.38,-201"/>
<polygon fill="none" stroke="black" points="6.38,-201 6.38,-223.5 52.88,-223.5 52.88,-201 6.38,-201"/>
<text text-anchor="start" x="9.38" y="-207.2" font-family="Times,serif" font-size="14.00">Human</text>
</g>
<!-- c5&#45;&#45;c4 -->
<g id="edge6" class="edge">
<title>c5&#45;&#45;c4</title>
<path fill="none" stroke="#999999" d="M27.66,-201.22C26.99,-193.96 26.24,-185.85 25.57,-178.61"/>
</g>
<!-- c6 -->
<g id="node7" class="node">
<title>c6</title>
<polygon fill="#dedede" stroke="none" points="242.75,-89.5 242.75,-112 288.5,-112 288.5,-89.5 242.75,-89.5"/>
<polygon fill="none" stroke="black" points="242.75,-89.5 242.75,-112 288.5,-112 288.5,-89.5 242.75,-89.5"/>
<text text-anchor="start" x="245.75" y="-95.7" font-family="Times,serif" font-size="14.00">bird</text>
<polygon fill="#ebebeb" stroke="none" points="242.75,-67 242.75,-89.5 288.5,-89.5 288.5,-67 242.75,-67"/>
<polygon fill="none" stroke="black" points="242.75,-67 242.75,-89.5 288.5,-89.5 288.5,-67 242.75,-67"/>
<text text-anchor="start" x="245.75" y="-73.2" font-family="Times,serif" font-size="14.00">Ostrich</text>
</g>
<!-- c6&#45;&#45;c0 -->
<g id="edge7" class="edge">
<title>c6&#45;&#45;c0</title>
<path fill="none" stroke="#999999" d="M242.94,-70.74C227.39,-58.56 207.37,-42.88 194.76,-33"/>
</g>
<!-- c7 -->
<g id="node8" class="node">
<title>c7</title>
<polygon fill="#dedede" stroke="none" points="241.88,-156.5 241.88,-179 297.38,-179 297.38,-156.5 241.88,-156.5"/>
<polygon fill="none" stroke="black" points="241.88,-156.5 241.88,-179 297.38,-179 297.38,-156.5 241.88,-156.5"/>
<text text-anchor="start" x="244.88" y="-162.7" font-family="Times,serif" font-size="14.00">mammal</text>
<polygon fill="#ebebeb" stroke="none" points="241.88,-134 241.88,-156.5 297.38,-156.5 297.38,-134 241.88,-134"/>
<polygon fill="none" stroke="black" points="241.88,-134 241.88,-156.5 297.38,-156.5 297.38,-134 241.88,-134"/>
<text text-anchor="start" x="244.88" y="-140.2" font-family="Times,serif" font-size="14.00">Lion</text>
</g>
<!-- c7&#45;&#45;c6 -->
<g id="edge8" class="edge">
<title>c7&#45;&#45;c6</title>
<path fill="none" stroke="#999999" d="M268.32,-134.22C267.87,-126.96 267.37,-118.85 266.92,-111.61"/>
</g>
<!-- c8 -->
<g id="node9" class="node">
<title>c8</title>
<polygon fill="#dedede" stroke="none" points="169.25,-223.5 169.25,-246 194,-246 194,-223.5 169.25,-223.5"/>
<polygon fill="none" stroke="black" points="169.25,-223.5 169.25,-246 194,-246 194,-223.5 169.25,-223.5"/>
<text text-anchor="start" x="172.25" y="-229.7" font-family="Times,serif" font-size="14.00">ape</text>
<polygon fill="white" stroke="none" points="169.25,-201 169.25,-223.5 194,-223.5 194,-201 169.25,-201"/>
<polygon fill="none" stroke="black" points="169.25,-201 169.25,-223.5 194,-223.5 194,-201 169.25,-201"/>
<text text-anchor="start" x="172.25" y="-207.2" font-family="Times,serif" font-size="14.00"> &#160;&#160;&#160;&#160;</text>
</g>
<!-- c8&#45;&#45;c1 -->
<g id="edge9" class="edge">
<title>c8&#45;&#45;c1</title>
<path fill="none" stroke="#999999" d="M181.62,-201.22C181.62,-193.96 181.62,-185.85 181.62,-178.61"/>
</g>
<!-- c8&#45;&#45;c7 -->
<g id="edge10" class="edge">
<title>c8&#45;&#45;c7</title>
<path fill="none" stroke="#999999" d="M193.86,-213.46C206.23,-204.32 225.78,-189.88 241.92,-177.96"/>
</g>
<!-- c9 -->
<g id="node10" class="node">
<title>c9</title>
<polygon fill="white" stroke="none" points="95.25,-290.5 95.25,-313 120,-313 120,-290.5 95.25,-290.5"/>
<polygon fill="none" stroke="black" points="95.25,-290.5 95.25,-313 120,-313 120,-290.5 95.25,-290.5"/>
<text text-anchor="start" x="98.25" y="-296.7" font-family="Times,serif" font-size="14.00"> &#160;&#160;&#160;&#160;</text>
<polygon fill="white" stroke="none" points="95.25,-268 95.25,-290.5 120,-290.5 120,-268 95.25,-268"/>
<polygon fill="none" stroke="black" points="95.25,-268 95.25,-290.5 120,-290.5 120,-268 95.25,-268"/>
<text text-anchor="start" x="98.25" y="-274.2" font-family="Times,serif" font-size="14.00"> &#160;&#160;&#160;&#160;</text>
</g>
<!-- c9&#45;&#45;c3 -->
<g id="edge11" class="edge">
<title>c9&#45;&#45;c3</title>
<path fill="none" stroke="#999999" d="M107.62,-268.22C107.62,-260.96 107.62,-252.85 107.62,-245.61"/>
</g>
<!-- c9&#45;&#45;c5 -->
<g id="edge12" class="edge">
<title>c9&#45;&#45;c5</title>
<path fill="none" stroke="#999999" d="M95.44,-279.34C84.04,-269.85 66.72,-255.41 52.71,-243.74"/>
</g>
<!-- c9&#45;&#45;c8 -->
<g id="edge13" class="edge">
<title>c9&#45;&#45;c8</title>
<path fill="none" stroke="#999999" d="M119.84,-278.77C133.56,-266.72 155.67,-247.3 169.39,-235.25"/>
</g>
</g>
</svg>
